<?xml version="1.0" encoding="UTF-8" standalone="no"?>
<!-- Generator: Adobe Illustrator 18.0.0, SVG Export Plug-In . SVG Version: 6.00 Build 0)  -->

<svg
   xmlns:dc="http://purl.org/dc/elements/1.1/"
   xmlns:cc="http://creativecommons.org/ns#"
   xmlns:rdf="http://www.w3.org/1999/02/22-rdf-syntax-ns#"
   xmlns:svg="http://www.w3.org/2000/svg"
   xmlns="http://www.w3.org/2000/svg"
   xmlns:sodipodi="http://sodipodi.sourceforge.net/DTD/sodipodi-0.dtd"
   xmlns:inkscape="http://www.inkscape.org/namespaces/inkscape"
   version="1.1"
   id="Capa_1"
   x="0px"
   y="0px"
   viewBox="0 0 67.169999 67.180001"
   xml:space="preserve"
   inkscape:version="0.91 r13725"
   sodipodi:docname="instagram-gold.svg"
   width="67.169998"
   height="67.18"><metadata
     id="metadata42"><rdf:RDF><cc:Work
         rdf:about=""><dc:format>image/svg+xml</dc:format><dc:type
           rdf:resource="http://purl.org/dc/dcmitype/StillImage" /><dc:title /></cc:Work></rdf:RDF></metadata><defs
     id="defs40" /><sodipodi:namedview
     pagecolor="#ffffff"
     bordercolor="#666666"
     borderopacity="1"
     objecttolerance="10"
     gridtolerance="10"
     guidetolerance="10"
     inkscape:pageopacity="0"
     inkscape:pageshadow="2"
     inkscape:window-width="1366"
     inkscape:window-height="705"
     id="namedview38"
     showgrid="false"
     fit-margin-top="0"
     fit-margin-left="0"
     fit-margin-right="0"
     fit-margin-bottom="0"
     inkscape:zoom="2.1034618"
     inkscape:cx="-40.104051"
     inkscape:cy="33.588"
     inkscape:window-x="-8"
     inkscape:window-y="-8"
     inkscape:window-maximized="1"
     inkscape:current-layer="g3" /><g
     id="g3"
     transform="translate(-22.514,-22.506)"><path
       style="fill:#ffdf00;fill-opacity:1"
       d="m 79.124,22.506 -46.05,0 c -5.83,0 -10.56,4.73 -10.56,10.57 l 0,46.05 c 0,5.83 4.73,10.56 10.56,10.56 l 46.05,0 c 5.83,0 10.56,-4.73 10.56,-10.56 l 0,-46.05 c 0,-5.84 -4.73,-10.57 -10.56,-10.57 z m -7.141,7.77 8.44,-0.02 0.02,0 c 0.81,-0.01 1.47,0.65 1.47,1.45 l 0,8.47 c 0,0.81 -0.65,1.46 -1.46,1.46 l -8.43,0.03 c -0.81,0 -1.46,-0.65 -1.46,-1.45 l -0.03,-8.47 c -0.01,-0.81 0.64,-1.46 1.45,-1.47 z m -26.179,20.05 c 0.22,-0.38 0.45,-0.76 0.71,-1.12 2.15,-2.98 5.64,-4.93 9.58,-4.93 3.95,0 7.44,1.95 9.59,4.93 0.26,0.36 0.49,0.74 0.71,1.13 0.96,1.7 1.53,3.67 1.53,5.76 0,6.52 -5.31,11.82 -11.83,11.82 -6.52,0 -11.82,-5.3 -11.82,-11.82 -10e-4,-2.09 0.56,-4.06 1.53,-5.77 z m 37.34,26.38 c 0,3.55 -2.89,6.44 -6.44,6.44 l -41.21,0 c -3.55,0 -6.44,-2.89 -6.44,-6.44 l 0,-27.5 10.03,0 c -0.25,0.61 -0.47,1.25 -0.65,1.89 -0.46,1.59 -0.7,3.27 -0.7,5 0,10.13 8.24,18.37 18.36,18.37 10.13,0 18.37,-8.24 18.37,-18.37 0,-1.73 -0.25,-3.41 -0.7,-5 -0.19,-0.64 -0.4,-1.28 -0.65,-1.89 l 10.03,0 0,27.5 z"
       id="path6"
       inkscape:connector-curvature="0" /></g><g
     id="g8"
     transform="translate(-22.514,-22.506)" /><g
     id="g10"
     transform="translate(-22.514,-22.506)" /><g
     id="g12"
     transform="translate(-22.514,-22.506)" /><g
     id="g14"
     transform="translate(-22.514,-22.506)" /><g
     id="g16"
     transform="translate(-22.514,-22.506)" /><g
     id="g18"
     transform="translate(-22.514,-22.506)" /><g
     id="g20"
     transform="translate(-22.514,-22.506)" /><g
     id="g22"
     transform="translate(-22.514,-22.506)" /><g
     id="g24"
     transform="translate(-22.514,-22.506)" /><g
     id="g26"
     transform="translate(-22.514,-22.506)" /><g
     id="g28"
     transform="translate(-22.514,-22.506)" /><g
     id="g30"
     transform="translate(-22.514,-22.506)" /><g
     id="g32"
     transform="translate(-22.514,-22.506)" /><g
     id="g34"
     transform="translate(-22.514,-22.506)" /><g
     id="g36"
     transform="translate(-22.514,-22.506)" /></svg>