<?xml version="1.0" encoding="UTF-8" standalone="no"?>
<!-- Created with Inkscape (http://www.inkscape.org/) -->

<svg
   xmlns:dc="http://purl.org/dc/elements/1.1/"
   xmlns:cc="http://creativecommons.org/ns#"
   xmlns:rdf="http://www.w3.org/1999/02/22-rdf-syntax-ns#"
   xmlns:svg="http://www.w3.org/2000/svg"
   xmlns="http://www.w3.org/2000/svg"
   xmlns:sodipodi="http://sodipodi.sourceforge.net/DTD/sodipodi-0.dtd"
   xmlns:inkscape="http://www.inkscape.org/namespaces/inkscape"
   width="71.349648mm"
   height="57.984318mm"
   viewBox="0 0 252.81371 205.45624"
   id="svg4305"
   version="1.1"
   inkscape:version="0.91 r13725"
   sodipodi:docname="twitter-gold.svg">
  <defs
     id="defs4307" />
  <sodipodi:namedview
     id="base"
     pagecolor="#ffffff"
     bordercolor="#666666"
     borderopacity="1.0"
     inkscape:pageopacity="0.0"
     inkscape:pageshadow="2"
     inkscape:zoom="0.82"
     inkscape:cx="-172.9824"
     inkscape:cy="122.87592"
     inkscape:document-units="px"
     inkscape:current-layer="layer1"
     showgrid="false"
     fit-margin-top="0"
     fit-margin-left="0"
     fit-margin-right="0"
     fit-margin-bottom="0"
     inkscape:window-width="1366"
     inkscape:window-height="705"
     inkscape:window-x="-8"
     inkscape:window-y="-8"
     inkscape:window-maximized="1" />
  <metadata
     id="metadata4310">
    <rdf:RDF>
      <cc:Work
         rdf:about="">
        <dc:format>image/svg+xml</dc:format>
        <dc:type
           rdf:resource="http://purl.org/dc/dcmitype/StillImage" />
        <dc:title></dc:title>
      </cc:Work>
    </rdf:RDF>
  </metadata>
  <g
     inkscape:label="Calque 1"
     inkscape:groupmode="layer"
     id="layer1"
     transform="translate(337.73188,-449.78187)">
    <path
       d="m -84.923181,474.10311 c -9.3012,4.125 -19.297499,6.91375 -29.789999,8.1675 10.7088,-6.42 18.933799,-16.58375 22.804999,-28.69624 -10.021199,5.94374 -21.121199,10.25999 -32.936199,12.58624 -9.4613,-10.08 -22.9425,-16.37874 -37.8588,-16.37874 -28.645,0 -51.8687,23.22249 -51.8687,51.86624 0,4.065 0.4587,8.02375 1.3437,11.82 -43.1075,-2.1625 -81.3262,-22.8125 -106.9075,-54.1925 -4.465,7.66 -7.0225,16.56875 -7.0225,26.075 0,17.995 9.1563,33.87125 23.0738,43.1725 -8.5025,-0.27 -16.5,-2.6025 -23.4925,-6.48875 0,0.21875 0,0.435 0,0.65375 0,25.13 17.8787,46.0925 41.6062,50.8575 -4.3525,1.18625 -8.9337,1.82125 -13.665,1.82125 -3.3412,0 -6.5912,-0.32625 -9.7587,-0.93 6.6012,20.60375 25.7562,35.60125 48.4525,36.01875 -17.7513,13.91 -40.115,22.20375 -64.4163,22.20375 -4.1875,0 -8.3162,-0.24625 -12.3737,-0.7275 22.9537,14.72 50.2175,23.30626 79.5087,23.30626 95.4025,0 147.5738,-79.03626 147.5738,-147.57626 0,-2.2475 -0.05,-4.48375 -0.15,-6.71 10.135,-7.3125 18.927499,-16.4475 25.881199,-26.84875"
       style="fill:#ffdf00;fill-opacity:1;fill-rule:nonzero;stroke:none"
       id="path4294"
       inkscape:connector-curvature="0" />
  </g>
</svg>
